# xmcd
#
# Track frame offsets:
#	150
#	16090
#	39374
#	61515
#	76344
#	98517
#	115815
#	131598
#	147961
#	160592
#	181923
#	198962
#	214205
#	226928
#	241589
#	252780
#	269654
#	284693
#
# Disc length: 3981 seconds
#
# Revision: 0
# Processed by: cddbd v1.5.2PL0 Copyright (c) Steve Scherf et al.
# Submitted via: EasyCDDAExtractor 16.0.6.1
#
DISCID=e70f8b12
DTITLE=Συλλογικός δίσκος - Στου τραγουδιού την όχθη 1-5
DYEAR=2011
DGENRE=Έντεχνη λαϊκή
TTITLE0=Τσανακλίδου Τάνια - Ίσως φταίνε τα φεγγάρια [Ν. Μαυρουδής-Τ. Σαμαρτζής
TTITLE0=]
TTITLE1=Περίδης Ορφέας-Κανά Μ.-Καλημέρη Λ.-Πάντος Δ. - Αχ να σε δώ! [Οεφέας Πε
TTITLE1=ρίδης]
TTITLE2=Βιτάλη Ελένη - Εγώ τραγούδαγα (Τα σκυλάδικα)[Ελένη Βιτάλη]
TTITLE3=Στόκας Μπάμπης - Ένας κόμπος η χαρά μου [Σ. Κουγιουμτζής, διασκ. Γ. Ντ
TTITLE3=αλάρας]
TTITLE4=Δημητριάδης Γιώργος-Ζιώγαλας Νίκος - Όσα μού 'χεις χαρίσει [Γιώργος Δη
TTITLE4=μητριάδης]
TTITLE5=Σταυρακάκης Μιχάλης-Χαΐνηδες - Η παντιγέρα [Δημήτρης Αποστολάκης]
TTITLE6=Παπάζογλου Νίκος - Ο μοναχός ο άνθρωπος [Ν. Παπάζογλου-Λάζ. Ανδρέου]
TTITLE7=Φαραντούρη Μαρία - Θεσσαλονίκη [Θ. Μικρούτσικος-Ν. Καββαδίας]
TTITLE8=Μητσιάς Μανώλης - Την πόρτα ανοίγω το βράδυ [Μ. Θεοδωράκης-Τ. Λειβαδίτ
TTITLE8=ης]
TTITLE9=Τσαλιγοπούλου Ελένη - Σώπα κι άκουσε [Γ. Ζήκας-ιδίου κ Μ. Αρκουλή]
TTITLE10=Θηβαίος Χρήστος - Θά 'θελα νά 'σουνα εδώ [Χρήστος Θηβαίος]
TTITLE11=Κανά Μελίνα - Εγκατάλειψη [Θ. Παντελής-Δ. Βαρνάβας]
TTITLE12=Ξυδάκης Νίκος - Παντοκράτορας [Ν. Ξυδάκης-Θ. Γκόνης]
TTITLE13=Γιαννάτου Σαβίνα - Madonna de la Grazia [ανων. Ιταλού-διασκ. Κ. Βόμβο
TTITLE13=λος]
TTITLE14=Λουδοβίκος των Ανωγείων - Άνοιξα μανταρίνι και σε θυμήθηκα [Λουδοβίκο
TTITLE14=ς Ανωγείων]
TTITLE15=Αρβανιτάκη Ελευθερία - Τσιγάρο εγώ στο στόμα μου δεν έβαλα ούτε ένα[Ν
TTITLE15=Ξυδάκης-Θ.Γκόνης]
TTITLE16=Ψαραντώνης - Με τσι μικρούς ύμουν μικρός [Ψαραντώνης]
TTITLE17=Βουγιουκλή Ελένη-Βουγιουκλή Σουζ.-Θηβαίος Χ. - Καληνύφτα [παραδ. Κάτω
TTITLE17=Ιταλίας]
EXTD=
EXTT0=
EXTT1=
EXTT2=
EXTT3=
EXTT4=
EXTT5=
EXTT6=
EXTT7=
EXTT8=
EXTT9=
EXTT10=
EXTT11=
EXTT12=
EXTT13=
EXTT14=
EXTT15=
EXTT16=
EXTT17=
PLAYORDER=
